<?xml version="1.0" encoding="UTF-8"?>
<!DOCTYPE svg PUBLIC "-//W3C//DTD SVG 1.1//EN" "http://www.w3.org/Graphics/SVG/1.1/DTD/svg11.dtd">
<!-- Creator: Corel DESIGNER -->
<svg xmlns="http://www.w3.org/2000/svg" xml:space="preserve" width="215.9mm" height="215.9mm" version="1.1" style="shape-rendering:geometricPrecision; text-rendering:geometricPrecision; image-rendering:optimizeQuality; fill-rule:evenodd; clip-rule:evenodd"
viewBox="0 0 21590 21590"
 xmlns:xlink="http://www.w3.org/1999/xlink"
 xmlns:xodm="http://www.corel.com/coreldraw/odm/2003">
 <defs>
  <style type="text/css">
   <![CDATA[
    .fil1 {fill:#E1AD01}
    .fil0 {fill:#E1AD01;fill-rule:nonzero}
   ]]>
  </style>
 </defs>
 <g id="Layer_x0020_1">
  <metadata id="CorelCorpID_0Corel-Layer"/>
  <g id="_2260943833408">
   <path class="fil0" d="M14328.81 11619.62c0,-243.58 -24.66,-481.36 -71.56,-710.98l-2939.76 0 0 644.89 -1044.53 0 0 -3429.35 -4.81 0.66 0 -1024.23c172.8,-20.01 348.65,-30.22 526.85,-30.22 1256.19,0 2393.44,509.19 3216.7,1332.45 823.34,823.26 1332.49,1960.58 1332.49,3216.78 0,1256.15 -509.15,2393.44 -1332.49,3216.69 -601.17,601.17 -1369.79,1034.89 -2229.9,1225.03l0 -1047.61c579.14,-168.11 1097.02,-480.33 1512,-895.35 639.46,-639.42 1035.01,-1522.96 1035.01,-2498.76zm-3034.09 5833.54l-1044.48 0 0 -1316.76c-1038.43,-123.93 -1969.48,-597.63 -2671.94,-1300.09 -823.21,-823.25 -1332.49,-1960.54 -1332.49,-3216.69 0,-1256.2 509.28,-2393.52 1332.49,-3216.78 594.75,-594.71 1353.45,-1025.5 2202.4,-1218.89l0 1049.54c-568.07,170.01 -1076.06,478.85 -1484.46,887.28 -639.5,639.42 -1035.05,1522.92 -1035.05,2498.85 0,975.8 395.55,1859.34 1035.05,2498.76 518.04,518.04 1196.16,875.96 1954,993.18l0 -2011.6 -1158.41 0 0 -1044.52 2202.89 0 0 40.06 0 1004.46 0 2719.69 0 313.58 0 1319.93zm2568.01 -7589.04c-156.41,-272.7 -348.16,-522.58 -568.93,-743.35 -523.1,-523.14 -1209.54,-882.96 -1976.31,-996.55l0 1739.9 2545.24 0z"/>
   <polygon class="fil1" points="5444.21,7527.99 10758.69,4169.61 10779.44,4136.84 10795.04,4146.68 10810.6,4136.84 10831.4,4169.7 16145.79,7527.99 16145.79,8763.56 10795.04,5382.33 5444.21,8763.56 "/>
  </g>
 </g>
</svg>
